<svg width="2861" height="2081" xmlns="http://www.w3.org/2000/svg" xmlns:xlink="http://www.w3.org/1999/xlink" overflow="hidden"><defs><clipPath id="clip0"><rect x="1168" y="1558" width="2861" height="2081"/></clipPath><linearGradient x1="1608.58" y1="3959.46" x2="3588.42" y2="1237.54" gradientUnits="userSpaceOnUse" spreadMethod="reflect" id="fill1"><stop offset="0" stop-color="#00E388"/><stop offset="0.64" stop-color="#39DFC4"/><stop offset="1" stop-color="#71DAFF"/></linearGradient><linearGradient x1="1608.58" y1="3959.46" x2="3588.42" y2="1237.54" gradientUnits="userSpaceOnUse" spreadMethod="reflect" id="fill2"><stop offset="0" stop-color="#00E388"/><stop offset="0.64" stop-color="#39DFC4"/><stop offset="1" stop-color="#71DAFF"/></linearGradient><linearGradient x1="1608.58" y1="3959.46" x2="3588.42" y2="1237.54" gradientUnits="userSpaceOnUse" spreadMethod="reflect" id="fill3"><stop offset="0" stop-color="#00E388"/><stop offset="0.64" stop-color="#39DFC4"/><stop offset="1" stop-color="#71DAFF"/></linearGradient></defs><g clip-path="url(#clip0)" transform="translate(-1168 -1558)"><path d="M2371 3151 1363.08 3151 1363.08 1981 2253.3 1981 2332.63 1786 1298.05 1786C1226.23 1786 1168 1844.2 1168 1916L1168 3216C1168 3287.8 1226.23 3346 1298.05 3346L2371 3346Z" fill="url(#fill1)" fill-rule="evenodd"/><path d="M3898.95 2273.5 3768.9 2273.5 3768.9 1916C3768.9 1844.2 3710.68 1786 3638.85 1786L2696 1786 2696 1981 3573.83 1981 3573.83 3151 2858.56 3151 2772.4 3346 3638.85 3346C3710.68 3346 3768.9 3287.8 3768.9 3216L3768.9 2858.5 3898.95 2858.5C3970.77 2858.5 4029 2800.3 4029 2728.5L4029 2403.5C4029 2331.7 3970.77 2273.5 3898.95 2273.5Z" fill="url(#fill2)" fill-rule="evenodd"/><path d="M2566.31 2533.47 2566.31 1558 2036 2857.65 2501.28 2858.62 2501.28 3639 2989 2533.47 2566.31 2533.47Z" fill="url(#fill3)" fill-rule="evenodd"/></g></svg>