<svg width="2571" height="2571" xmlns="http://www.w3.org/2000/svg" xmlns:xlink="http://www.w3.org/1999/xlink" overflow="hidden">
    <!-- <defs>
        <clipPath id="clip0">
            <rect x="1586" y="1313" width="1804" height="2571" />
        </clipPath>
    </defs> -->
    <g clip-path="url(#clip0)" transform="translate(-1286 -1313)">
        <path d="M2598.5 1313C2859.42 1313 3105.21 1441.55 3252.68 1660.84 3400.15 1876.35 3430.4 2152.36 3335.87 2398.11L2976.64 3192.1 2666.57 3842.41C2655.22 3868.88 2628.75 3884 2598.5 3884 2568.25 3884 2541.78 3868.88 2530.44 3842.41L2403.92 3577.07 2446.88 3550.97C2593.76 3451.75 2690.33 3283.73 2690.33 3093.15 2690.33 2788.23 2443.11 2541.04 2138.15 2541.04 2080.97 2541.04 2025.82 2549.73 1973.95 2565.86L1942.27 2577.46 1861.13 2398.11C1766.6 2152.36 1796.85 1876.35 1944.32 1660.84 2091.8 1441.55 2337.58 1313 2598.5 1313ZM2598.5 1766.71C2409.43 1766.71 2258.18 1917.94 2258.18 2106.99 2258.18 2296.03 2409.43 2447.26 2598.5 2447.26 2787.57 2447.26 2938.82 2296.03 2938.82 2106.99 2938.82 1917.94 2787.57 1766.71 2598.5 1766.71Z" fill-rule="evenodd" />
        <path d="M2082.97 2724.65 2082.97 3037.57 1770.06 3037.57 1770.06 3148.01 2082.97 3148.01 2082.97 3460.93 2193.41 3460.93 2193.41 3148.01 2506.32 3148.01 2506.32 3037.57 2193.41 3037.57 2193.41 2724.65ZM1942.31 2577 1965 2627.16 1978.23 2622.32C2025.06 2607.75 2074.85 2599.9 2126.47 2599.9 2401.8 2599.9 2625 2823.11 2625 3098.45 2625 3270.53 2537.81 3422.25 2405.2 3511.85L2380.23 3527.02 2403.96 3576.79 2401.4 3578.35C2323.16 3620.86 2233.49 3645 2138.19 3645 1833.22 3645 1586 3397.77 1586 3092.79 1586 2864.06 1725.06 2667.81 1923.25 2583.98Z" fill-rule="evenodd" />
    </g>
</svg>