<svg width="3331" height="3021" xmlns="http://www.w3.org/2000/svg" xmlns:xlink="http://www.w3.org/1999/xlink" overflow="hidden">
    <defs>
        <clipPath id="clip0">
            <rect x="1088" y="1088" width="3331" height="3021" />
        </clipPath>
    </defs>
    <g clip-path="url(#clip0)" transform="translate(-1088 -1088)">
        <path d="M2598.82 3547.58C2075.38 3547.58 1649.55 3121.8 1649.55 2598.5 1649.55 2075.17 2075.38 1649.42 2598.82 1649.42 2963.03 1649.42 3279.82 1855.65 3438.95 2157.38L4044 2157.38C3855.19 1538.4 3279.68 1088 2598.82 1088 1764.42 1088 1088 1764.28 1088 2598.5 1088 3432.7 1764.42 4109 2598.82 4109 3033.73 4109 3425.39 3925.01 3701.08 3630.99L3291.1 3246.95C3117.75 3431.76 2871.6 3547.58 2598.82 3547.58Z" fill-rule="evenodd" />
        <path d="M4418.21 1908.99 3863.19 3036.83 2933.32 2191.12Z" fill-rule="evenodd" />
    </g>
</svg>