<svg width="1493" height="1549" xmlns="http://www.w3.org/2000/svg" xmlns:xlink="http://www.w3.org/1999/xlink" overflow="hidden"><defs><clipPath id="clip0"><rect x="1852" y="1757" width="1493" height="1549"/></clipPath><linearGradient x1="2226.65" y1="3305.5" x2="2226.65" y2="1758" gradientUnits="userSpaceOnUse" spreadMethod="reflect" id="fill1"><stop offset="0" stop-color="#00E388"/><stop offset="0.64" stop-color="#39DFC4"/><stop offset="1" stop-color="#71DAFF"/></linearGradient><linearGradient x1="2226.65" y1="3305.5" x2="2226.65" y2="1758" gradientUnits="userSpaceOnUse" spreadMethod="reflect" id="fill2"><stop offset="0" stop-color="#00E388"/><stop offset="0.64" stop-color="#39DFC4"/><stop offset="1" stop-color="#71DAFF"/></linearGradient><linearGradient x1="30.2569" y1="1547.5" x2="30.2569" y2="-0.00129028" gradientUnits="userSpaceOnUse" spreadMethod="reflect" id="fill3"><stop offset="0" stop-color="#00E388" stop-opacity="0.8"/><stop offset="0.64" stop-color="#39DFC4" stop-opacity="0.85098"/><stop offset="1" stop-color="#71DAFF" stop-opacity="0.901961"/></linearGradient><linearGradient x1="373.257" y1="746.5" x2="373.257" y2="-801.001" gradientUnits="userSpaceOnUse" spreadMethod="reflect" id="fill4"><stop offset="0" stop-color="#00E388" stop-opacity="0.8"/><stop offset="0.64" stop-color="#39DFC4" stop-opacity="0.85098"/><stop offset="1" stop-color="#71DAFF" stop-opacity="0.901961"/></linearGradient></defs><g clip-p="url(#clip0)" transform="translate(-1852 -1757)"><path d="M2601.3 2559C2379.84 2559.17 2200.17 2379.99 2200 2158.8 2199.83 1937.61 2379.23 1758.17 2600.69 1758 2600.8 1758 2600.9 1758 2601 1758L2601 2158.5Z" fill="url(#fill1)" fill-rule="evenodd"/><path d="M1852.01 3302.85C1853.46 2891.61 2187.25 2559 2598.5 2559L2598.5 3305.5Z" fill="url(#fill2)" fill-rule="evenodd"/><path d="M402.785 800.995C181.321 801.98 0.989595 623.47 0.00369185 402.282-0.982211 181.094 177.751 0.987353 399.215 0.00267824 399.81 3.25612e-05 400.405-0.00129028 401-0.00129028L401 400.5Z" fill="url(#fill3)" fill-rule="evenodd" transform="matrix(-1 0 0 1 3002 1758)"/><path d="M0.0130621 742.051C2.46025 331.514 335.956 0.00048776 746.501 0.00048776L746.501 746.5Z" fill="url(#fill4)" fill-rule="evenodd" transform="matrix(-1 0 0 1 3345 2559)"/></g></svg>