<?xml version="1.0" standalone="no"?>
<!DOCTYPE svg PUBLIC "-//W3C//DTD SVG 20010904//EN"
 "http://www.w3.org/TR/2001/REC-SVG-20010904/DTD/svg10.dtd">
<svg version="1.0" xmlns="http://www.w3.org/2000/svg"
 width="2861.000000pt" height="2861.000000pt" viewBox="0 0 2861.000000 2861.000000"
 preserveAspectRatio="xMidYMid meet">
<metadata>
Created by potrace 1.14, written by Peter Selinger 2001-2017
</metadata>
<g transform="translate(0.000000,2861.000000) scale(0.100000,-0.100000)"
fill="#000000" stroke="none">
<path d="M13970 24687 c0 -9 -9 -36 -20 -59 -11 -24 -94 -227 -186 -453 -91
-225 -172 -423 -179 -440 -7 -16 -34 -82 -59 -145 -26 -63 -51 -124 -56 -135
-4 -11 -22 -54 -38 -95 -89 -221 -125 -309 -142 -347 -11 -24 -20 -46 -20 -49
0 -3 -7 -20 -14 -37 -8 -18 -54 -129 -102 -247 -84 -208 -148 -365 -289 -710
-37 -91 -123 -302 -191 -470 -69 -168 -129 -314 -134 -325 -5 -11 -38 -92 -74
-180 -35 -88 -130 -322 -211 -520 -220 -539 -231 -567 -302 -740 -36 -88 -71
-173 -78 -190 -7 -16 -82 -199 -165 -405 -84 -206 -179 -440 -212 -520 -32
-80 -82 -201 -110 -270 -52 -130 -73 -181 -88 -215 -5 -11 -55 -132 -110 -270
-56 -137 -105 -259 -110 -270 -5 -11 -70 -171 -145 -355 -75 -184 -152 -373
-172 -420 -19 -47 -42 -103 -51 -125 -8 -22 -24 -60 -34 -85 -11 -25 -23 -54
-27 -65 -5 -11 -21 -48 -35 -81 -14 -34 -26 -66 -26 -71 0 -6 -6 -23 -14 -39
-15 -31 -69 -161 -243 -589 -58 -143 -131 -323 -163 -400 -32 -77 -92 -225
-135 -330 -42 -104 -82 -203 -89 -220 -7 -16 -19 -43 -26 -60 -21 -51 -162
-398 -175 -430 -6 -16 -16 -41 -23 -55 -6 -14 -40 -97 -75 -185 -36 -88 -90
-221 -120 -295 -168 -414 -410 -1009 -422 -1035 -7 -16 -57 -138 -110 -270
-53 -132 -103 -253 -110 -270 -7 -16 -34 -82 -59 -145 -26 -63 -51 -124 -55
-135 -49 -112 -88 -211 -85 -216 3 -5 1050 -9 3436 -12 l1208 -2 1 -25 c0 -14
1 -1769 1 -3900 l1 -3875 23 50 c28 59 77 168 79 175 4 12 223 509 317 720 11
25 26 59 33 75 8 17 23 50 34 75 31 72 353 803 453 1030 88 200 125 284 153
345 14 30 285 646 355 805 88 201 219 499 238 540 11 25 55 124 97 220 43 96
90 203 106 238 16 34 29 65 29 67 0 2 14 35 31 72 17 38 37 82 44 98 14 31
318 719 412 935 30 69 64 145 76 170 11 25 21 47 22 50 4 12 27 64 83 190 33
74 95 214 137 310 42 96 86 195 97 220 11 25 26 59 33 75 18 39 132 299 155
350 10 22 32 74 50 115 18 41 43 98 55 125 13 28 80 181 150 340 70 160 140
318 156 353 16 35 29 65 29 67 0 3 16 40 36 82 20 43 42 92 49 108 7 17 23 53
35 80 12 28 45 102 72 165 28 63 55 121 60 128 6 6 8 12 5 12 -4 0 4 21 17 48
13 26 53 115 89 197 51 119 443 1007 502 1140 7 17 24 55 38 85 13 30 33 75
45 100 11 25 31 72 45 105 14 33 39 89 55 125 16 36 60 134 96 218 57 130 109
246 146 327 7 16 119 271 136 310 3 7 -690 10 -2108 10 l-2113 0 -1 4868 c0
2676 -3 4870 -7 4873 -4 4 -7 0 -7 -9z"/>
<path d="M1170 22425 c-8 -2 -49 -9 -90 -16 -41 -7 -77 -13 -80 -14 -152 -38
-303 -105 -427 -189 -232 -156 -410 -388 -502 -651 -22 -66 -49 -174 -59 -245
-10 -66 -9 -13305 1 -13370 14 -92 47 -209 87 -306 37 -90 121 -239 157 -279
10 -11 30 -36 45 -56 33 -44 136 -144 207 -199 140 -111 328 -197 526 -244
l90 -21 5452 -2 5453 -3 0 975 0 975 -5040 0 -5040 0 0 5850 0 5850 4453 0
4452 0 34 88 c19 48 42 105 51 127 9 22 41 99 69 170 29 72 57 139 61 150 11
24 58 140 155 380 40 99 90 221 110 270 21 50 45 110 55 135 10 25 24 59 31
75 7 17 13 35 15 40 3 11 108 267 123 300 19 41 81 201 81 208 0 6 -10436 8
-10470 2z"/>
<path d="M15280 21455 l0 -975 4389 0 4390 0 0 -5850 0 -5850 -3579 0 -3579 0
-7 -22 c-4 -13 -22 -56 -42 -98 -31 -68 -52 -116 -57 -130 -4 -11 -24 -58 -55
-125 -56 -124 -67 -149 -95 -215 -15 -36 -45 -103 -66 -148 -22 -46 -39 -90
-39 -98 0 -8 -4 -14 -9 -14 -5 0 -11 -10 -14 -22 -4 -18 -188 -439 -271 -621
-61 -133 -196 -443 -196 -449 0 -5 1990 -7 4423 -5 l4422 3 85 21 c293 74 496
192 685 395 112 121 231 317 266 438 7 25 16 50 20 55 3 6 10 24 13 40 3 17 9
41 12 55 33 152 33 162 34 2019 0 1009 3 1837 6 1840 3 3 321 6 707 7 386 0
716 4 732 7 17 3 50 9 75 12 289 39 624 241 811 490 52 68 148 223 149 240 0
3 10 26 21 52 11 27 31 85 45 131 55 193 53 100 51 2017 -1 974 -6 1781 -10
1795 -4 14 -11 49 -17 78 -40 219 -180 475 -355 648 -61 61 -214 184 -229 184
-2 0 -31 16 -63 34 -99 59 -277 122 -400 142 -102 16 -231 19 -845 19 l-678 0
-1 1805 c0 993 -2 1828 -3 1856 -21 317 -156 608 -386 834 -114 112 -152 141
-269 210 -107 62 -292 131 -391 146 -19 3 -46 8 -60 12 -14 4 -2184 8 -4822 9
l-4798 3 0 -975z"/>
</g>
</svg>
